<?xml version="1.0" encoding="UTF-8"?>
<svg id="Capa_2" data-name="Capa 2" xmlns="http://www.w3.org/2000/svg" xmlns:xlink="http://www.w3.org/1999/xlink" viewBox="0 0 172.78 172.78">
  <defs>
    <style>
      .cls-1 {
        fill: #fff;
      }

      .cls-2 {
        fill: #3992ad;
      }

      .cls-3 {
        fill: none;
        stroke: url(#Degradado_sin_nombre_29);
        stroke-miterlimit: 10;
        stroke-width: 6px;
      }
    </style>
    <linearGradient id="Degradado_sin_nombre_29" data-name="Degradado sin nombre 29" x1="34.29" y1="144.65" x2="138.49" y2="28.13" gradientUnits="userSpaceOnUse">
      <stop offset="0" stop-color="#8d6135"/>
      <stop offset=".14" stop-color="#a9834f"/>
      <stop offset=".46" stop-color="#f2d894"/>
      <stop offset=".51" stop-color="#ffe8a0"/>
      <stop offset=".67" stop-color="#e2c17c"/>
      <stop offset="1" stop-color="#a67133"/>
    </linearGradient>
  </defs>
  <g id="Capa_1-2" data-name="Capa 1">
    <g>
      <g>
        <circle class="cls-2" cx="86.39" cy="86.39" r="86.39"/>
        <circle class="cls-3" cx="86.39" cy="86.39" r="75.16"/>
      </g>
      <g>
        <path class="cls-1" d="M122.93,63.28v19.21c-.34.99-1.13,1.34-1.78,1.34-.77,0-1.63-.47-1.74-1.79-.24-2.8-.12-5.89,0-8.88.12-2.98.24-6.07.01-8.97-.27-3.38-3.12-7.14-6.79-7.14h-6.02v4.94c0,.44-1.04,1.23-1.81,1.23-.69,0-1.7-.82-1.7-1.23v-4.94h-16.65v4.94c0,.44-1.04,1.23-1.81,1.23-.68,0-1.7-.82-1.7-1.23v-4.94h-16.49v4.94c0,.44-1.04,1.23-1.81,1.23-.68,0-1.7-.82-1.7-1.23v-4.94h-5.86c-3.21,0-6.76,3.71-6.78,7.09v48.6s0,.05,0,.05v.05c.3,3.79,2.91,6.57,6.66,7.08h.09s.09.01.09.01l24.35.04c1.15.14,1.58.97,1.6,1.7.01.7-.36,1.57-1.46,1.78-1.32-.07-2.72-.1-4.29-.1-2.45,0-4.97.08-7.41.17-2.41.08-4.92.16-7.33.16-2.14,0-4.01-.07-5.7-.2-5.25-.42-9.68-4.89-10.1-10.18l.03-49.9c.06-2.09,1.27-4.55,3.25-6.59,1.99-2.05,4.38-3.28,6.42-3.28h6.47v-4.92c.05-.33.79-1.05,1.31-1.23h.89c.53.18,1.27.9,1.31,1.22v4.94h16.49v-4.92c.05-.33.79-1.05,1.31-1.23h.89c.53.18,1.27.9,1.31,1.22v4.94h16.65v-4.92c.04-.33.78-1.05,1.31-1.23h.89c.53.18,1.27.9,1.31,1.22v4.94h6.63c1.73,0,5.06,1.79,6.48,3.2,1.6,1.61,2.71,3.85,3.2,6.51Z"/>
        <path class="cls-1" d="M117.21,93.4c-3.25-2.87-7.39-4.45-11.67-4.45-2.31,0-4.57.46-6.72,1.38-3.12,1.33-5.72,3.48-7.54,6.22-1.71,2.58-2.7,5.61-2.86,8.77-.17,3.15.5,6.27,1.93,9,1.52,2.91,3.89,5.32,6.85,6.96,2.66,1.48,5.49,2.22,8.42,2.22,4.22,0,8.3-1.57,11.52-4.43,3.28-2.93,5.34-6.97,5.81-11.4v-2.95c-.37-4.38-2.4-8.4-5.73-11.33ZM117.18,113.75c-2.53,3.9-6.84,6.22-11.54,6.22s-8.94-2.29-11.48-6.12c-2.7-4.07-3.04-9.15-.92-13.59,2.09-4.4,6.21-7.3,11.01-7.77.47-.05.94-.07,1.41-.07,5.02,0,9.66,2.78,12.09,7.25,2.45,4.51,2.24,9.77-.56,14.08Z"/>
        <path class="cls-1" d="M64.94,80.13c-.09,0-.18.01-.26.01-1.52,0-1.69-1.37-1.71-1.65-.05-.75.29-1.69,1.4-1.83.13-.02.25-.03.37-.03.76,0,1.18.35,1.4.73.23.38.27.81.27.94,0,.17.04,1.67-1.48,1.82Z"/>
        <path class="cls-1" d="M78.33,80.13c-.09,0-.18.01-.26.01-1.53,0-1.69-1.37-1.71-1.65-.05-.75.29-1.69,1.4-1.83.13-.02.25-.03.37-.03.76,0,1.18.35,1.4.73.23.38.27.81.27.94,0,.17.03,1.67-1.48,1.82Z"/>
        <path class="cls-1" d="M91.72,80.13c-.09,0-.18.01-.26.01-1.53,0-1.69-1.37-1.71-1.65-.05-.75.29-1.69,1.4-1.83.13-.02.25-.03.37-.03.76,0,1.18.35,1.4.73.23.38.27.81.27.94,0,.17.03,1.67-1.48,1.82Z"/>
        <path class="cls-1" d="M105.11,80.13c-.09,0-.18.01-.26.01-1.53,0-1.69-1.37-1.71-1.65-.05-.75.29-1.69,1.4-1.83.13-.02.25-.03.37-.03.76,0,1.18.35,1.4.73.23.38.27.81.27.94,0,.17.03,1.67-1.48,1.82Z"/>
        <path class="cls-1" d="M64.94,93.5c-.09,0-.18.01-.26.01-1.52,0-1.69-1.37-1.71-1.65-.05-.75.29-1.68,1.4-1.83.13-.02.25-.03.37-.03.76,0,1.18.35,1.4.73.23.38.27.81.27.94,0,.17.04,1.67-1.48,1.82Z"/>
        <path class="cls-1" d="M78.33,93.5c-.09,0-.18.01-.26.01-1.53,0-1.69-1.37-1.71-1.65-.05-.75.29-1.68,1.4-1.83.13-.02.25-.03.37-.03.76,0,1.18.35,1.4.73.23.38.27.81.27.94,0,.17.03,1.67-1.48,1.82Z"/>
        <path class="cls-1" d="M64.94,106.89c-.09,0-.18.01-.26.01-1.52,0-1.69-1.37-1.71-1.65-.05-.75.29-1.69,1.4-1.84.13-.02.25-.02.37-.02.76,0,1.18.35,1.4.73.23.39.27.8.27.94,0,.17.04,1.67-1.48,1.82Z"/>
        <path class="cls-1" d="M78.33,106.89c-.09,0-.18.01-.26.01-1.53,0-1.69-1.37-1.71-1.65-.05-.75.29-1.69,1.4-1.84.13-.02.25-.02.37-.02.76,0,1.18.35,1.4.73.23.39.27.8.27.94,0,.17.03,1.67-1.48,1.82Z"/>
        <path class="cls-1" d="M111.85,106.21c0,.72-.4,1.62-1.54,1.75-.32.04-1.12.08-2.15.08-1.94,0-3.04-.13-3.28-.21-.61-.24-.95-.93-1.01-1.51-.16-1.53-.13-4.56,0-6.23.13-1.79,1.39-1.93,1.77-1.93.78,0,1.62.48,1.75,1.55.06.52.04,1.12.01,1.75-.02.58-.05,1.19,0,1.78l.08,1.15,1.15.08c.12,0,.23,0,.37,0,.17,0,.35,0,.53-.01.14,0,.28-.01.42-.01.1,0,.18,0,.25.01,1.22.13,1.65.99,1.66,1.75Z"/>
      </g>
    </g>
  </g>
</svg>